<svg version="1.1" id="Layer_1" xmlns="http://www.w3.org/2000/svg" xmlns:xlink="http://www.w3.org/1999/xlink" x="0px" y="0px" viewBox="0 0 256 256" style="enable-background:new 0 0 256 256;" xml:space="preserve">

<g>
&#x9;<linearGradient id="SVGID_1_" gradientUnits="userSpaceOnUse" x1="174.3528" y1="179.1066" x2="102.3528" y2="59.1066">
&#x9;&#x9;<stop offset="0" style="stop-color:#3AA8A5"></stop>
&#x9;&#x9;<stop offset="0.1941" style="stop-color:#43B4B0"></stop>
&#x9;&#x9;<stop offset="0.4917" style="stop-color:#59C29C"></stop>
&#x9;&#x9;<stop offset="0.7848" style="stop-color:#6DC17A"></stop>
&#x9;&#x9;<stop offset="1" style="stop-color:#7AC26A"></stop>
&#x9;</linearGradient>
&#x9;<path class="st0" d="M243.5,62.2c-10.5-12.7-32.8-4.1-49.6,14.4c-16.8,18.5-66.2,71.1-84.3,88.3c-18.1,17.2-37.9,16.2-58.3-3.2&#xA;&#x9;&#x9;c-13.6-12.8-26.8-35.8-30.1-57.4c-3.3,10.2-4.9,21.1-4.9,32.4c0,47.6,35.8,86.2,79.9,86.2c22.5,0,43.8-12.2,61.7-32.8&#xA;&#x9;&#x9;c17.9-20.6,60.7-70.2,76.7-91.6C246.1,86.8,249.1,72.9,243.5,62.2z"></path>
&#x9;<linearGradient id="SVGID_2_" gradientUnits="userSpaceOnUse" x1="102.4143" y1="160.2421" x2="102.4143" y2="51.2421">
&#x9;&#x9;<stop offset="0" style="stop-color:#7AC26A"></stop>
&#x9;&#x9;<stop offset="0.2152" style="stop-color:#6DC17A"></stop>
&#x9;&#x9;<stop offset="0.5083" style="stop-color:#59C29C"></stop>
&#x9;&#x9;<stop offset="0.8059" style="stop-color:#43B4B0"></stop>
&#x9;&#x9;<stop offset="1" style="stop-color:#3AA8A5"></stop>
&#x9;</linearGradient>
&#x9;<path class="st1" d="M87.4,101.2c13.1,0,23.7-10.9,23.7-24.3c0-13.4-10.6-24.3-23.7-24.3c-13.1,0-23.7,10.9-23.7,24.3&#xA;&#x9;&#x9;C63.7,90.3,74.3,101.2,87.4,101.2z M158.7,71.9c-7.2-3.6-14.4,2.3-18.9,5.9c-4.5,3.6-30.1,25.4-30.1,25.4&#xA;&#x9;&#x9;c-6.4,5.3-13.6,9.3-21.7,10.1c-15.9,1.6-30.1-11.8-37.9-14.4c-7.8-2.7-13.6,1.6-14.4,7.2c-0.8,5.6,2.7,10.1,5.3,14.4&#xA;&#x9;&#x9;c2.7,4.3,21.7,32.4,21.7,32.4c3.6,5.3,10.1,14.4,21.7,14.4c11.6,0,17.2-10.1,21.7-17.2c4.5-7.2,8.2-15.2,13.6-21.7&#xA;&#x9;&#x9;c5.3-6.4,10.5-12.7,16.8-18.9c6.4-6.4,25.4-23.7,25.4-23.7C162.3,84.5,165.9,75.4,158.7,71.9z"></path>
</g>
</svg>